<svg width="52" height="52" viewBox="0 0 52 52" fill="none" xmlns="http://www.w3.org/2000/svg">
<rect width="52" height="52" rx="13" fill="url(#paint0_linear_205_4416)"/>
<mask id="mask0_205_4416" style="mask-type:luminance" maskUnits="userSpaceOnUse" x="10" y="10" width="32" height="32">
<path d="M10 10H42V42H10V10Z" fill="white"/>
</mask>
<g mask="url(#mask0_205_4416)">
<path fill-rule="evenodd" clip-rule="evenodd" d="M26 10C34.837 10 42 17.1638 42 26C42 34.8362 34.837 42 26 42C17.1638 42 10 34.8362 10 26C10 17.1638 17.1638 10 26 10ZM26 22.3072C23.9645 22.3072 22.308 23.9638 22.308 26C22.308 28.0362 23.9645 29.6928 26 29.6928C28.0362 29.6928 29.6928 28.0362 29.6928 26C29.6928 23.9638 28.0362 22.3072 26 22.3072ZM26 31.2551C28.8978 31.2551 31.2551 28.8978 31.2551 26C31.2551 23.1022 28.8978 20.7449 26 20.7449C23.1029 20.7449 20.7457 23.1022 20.7457 26C20.7457 28.8978 23.1029 31.2551 26 31.2551ZM15.3123 25.1246C14.9797 25.6891 14.9797 26.3109 15.3123 26.8754C17.7616 31.0399 21.7572 33.5254 26 33.5254C30.2435 33.5254 34.2391 31.0399 36.6884 26.8754C37.021 26.3109 37.021 25.6891 36.6884 25.1246C34.2391 20.9601 30.2435 18.4746 26 18.4746C21.7572 18.4746 17.7609 20.9601 15.3123 25.1246Z" fill="white"/>
</g>
<defs>
<linearGradient id="paint0_linear_205_4416" x1="-4.875" y1="-12.4583" x2="52" y2="62.8333" gradientUnits="userSpaceOnUse">
<stop offset="0.0550171" stop-color="#151768"/>
<stop offset="1" stop-color="#BAEE30"/>
</linearGradient>
</defs>
</svg>
