<svg width="52" height="52" viewBox="0 0 52 52" fill="none" xmlns="http://www.w3.org/2000/svg">
<rect width="52" height="52" rx="13" fill="url(#paint0_linear_205_4418)"/>
<mask id="mask0_205_4418" style="mask-type:luminance" maskUnits="userSpaceOnUse" x="25" y="20" width="17" height="22">
<path d="M25.3359 20.3796H41.9995V42H25.3359V20.3796Z" fill="white"/>
</mask>
<g mask="url(#mask0_205_4418)">
<path d="M36.0975 26.0436C35.1247 25.7688 34.2264 25.4941 33.428 25.1439C33.1539 25.0192 33.0288 24.9192 32.9788 24.8692C33.104 24.8192 33.3535 24.7691 33.7274 24.7438C33.7274 24.7438 36.4468 24.6437 37.1209 24.5691C38.3685 24.4444 39.4664 23.7441 40.0898 22.7451C40.2395 22.495 40.1151 22.2449 39.9155 22.0448C39.8403 21.9702 38.3931 20.5203 37.4449 20.471C37.1708 20.4456 36.9458 20.6957 36.9458 20.9705C36.9458 21.1206 36.8959 21.1706 36.8714 21.1952C36.6218 21.4453 35.8733 21.4207 35.3996 21.4207C35.2498 21.4207 34.0767 21.4453 33.6276 21.4453C32.1305 21.47 30.5835 21.4953 29.0863 21.8948C27.9386 22.1949 27.2898 22.7698 27.1654 23.5694C26.9904 24.7691 28.1881 25.4187 29.0618 25.8935C29.286 26.0182 29.5109 26.1436 29.6606 26.2437C30.2594 26.6685 30.5589 27.0933 30.5336 27.5427C30.4591 28.9172 27.5393 30.5418 26.5666 31.0913C26.5167 31.1167 26.1174 31.3414 25.4434 31.6915C25.7927 32.3411 25.9677 33.0907 25.9677 33.8402V41.4876C25.9677 41.6623 25.9424 41.8377 25.8925 41.987H35.9232L38.3186 38.8633C38.3186 38.8633 38.3685 38.764 38.443 38.5885C39.7904 36.6892 41.3374 34.0903 41.6867 32.6658C42.9097 28.0676 39.117 26.9432 36.0975 26.0436ZM27.365 40.0631L27.2652 40.1385C27.0403 40.2878 26.7409 40.2631 26.5666 40.0384C26.3915 39.813 26.4414 39.5136 26.6664 39.3381L26.7662 39.2635C26.9904 39.1134 27.2898 39.1388 27.4648 39.3635C27.6391 39.5882 27.5892 39.913 27.365 40.0631ZM29.1862 38.6886L28.9865 38.8387C28.7623 39.0134 28.4629 38.9633 28.2879 38.7386C28.1136 38.5139 28.1635 38.2138 28.3877 38.039L28.5873 37.889C28.8122 37.7143 29.1117 37.7643 29.286 37.989C29.461 38.2138 29.4111 38.5139 29.1862 38.6886ZM30.9827 37.2641L30.7831 37.4142C30.5835 37.5889 30.2594 37.5388 30.0844 37.3395C29.9101 37.114 29.9347 36.8146 30.1596 36.6392L30.3593 36.4899C30.5835 36.3144 30.8829 36.3398 31.0579 36.5645C31.2322 36.7893 31.2076 37.114 30.9827 37.2641ZM32.7546 35.815L32.555 35.9897C32.3554 36.1644 32.0307 36.1397 31.8564 35.9396C31.6813 35.7396 31.7067 35.4148 31.9063 35.2401L32.1059 35.0654C32.3055 34.8899 32.6295 34.9153 32.8045 35.1154C32.9788 35.3148 32.9543 35.6395 32.7546 35.815ZM33.5278 28.4424C33.7028 28.2177 34.0022 28.1676 34.2264 28.3423L34.3263 28.4177C34.5512 28.5678 34.6011 28.8926 34.4514 29.1173C34.3017 29.342 33.9769 29.392 33.7527 29.242C33.7028 29.2173 33.6775 29.1927 33.6529 29.1673C33.428 28.9926 33.3781 28.6678 33.5278 28.4424ZM34.476 34.3404L34.2764 34.4905C34.0767 34.6652 33.7527 34.6406 33.5777 34.4151C33.4034 34.215 33.428 33.8903 33.6529 33.7155L33.8525 33.5655C34.0521 33.3908 34.3762 33.4154 34.5512 33.6155C34.7255 33.8402 34.7009 34.1657 34.476 34.3404ZM36.0975 32.4911C36.0476 32.5658 35.9977 32.6658 35.9478 32.7412C35.7981 32.966 35.4986 33.066 35.2744 32.9159C35.0249 32.7659 34.9504 32.4658 35.1001 32.2164C35.1247 32.1664 35.1746 32.091 35.1999 32.0163C35.3243 31.7662 35.6238 31.6662 35.8733 31.7916C36.1228 31.9409 36.2226 32.241 36.0975 32.4911ZM35.9731 30.7419C35.7236 30.8666 35.4241 30.7665 35.2997 30.5418C35.2744 30.4918 35.2245 30.4417 35.1999 30.3917C35.0502 30.167 35.1001 29.8422 35.3243 29.6922C35.5485 29.5421 35.8733 29.5921 36.023 29.8169C36.0975 29.8923 36.1474 29.9923 36.1973 30.0923C36.2971 30.3171 36.2226 30.6165 35.9731 30.7419Z" fill="white"/>
</g>
<path d="M17.485 27.9928C19.2815 27.9928 20.7287 26.5429 20.7287 24.7436V22.745C20.7287 20.9457 19.2815 19.4958 17.485 19.4958C15.6884 19.4958 14.2412 20.9457 14.2412 22.745V24.7436C14.2412 26.5429 15.6884 27.9928 17.485 27.9928Z" fill="white"/>
<mask id="mask1_205_4418" style="mask-type:luminance" maskUnits="userSpaceOnUse" x="10" y="30" width="3" height="12">
<path d="M10 30.4011H12.1907V42.0001H10V30.4011Z" fill="white"/>
</mask>
<g mask="url(#mask1_205_4418)">
<path d="M10 33.9155V41.4875C10 41.7622 10.2242 41.987 10.499 41.987C10.7731 41.987 10.9981 41.7622 10.9981 41.4875V33.9155C10.9981 33.0659 11.3973 32.3163 12.0207 31.7915L12.096 30.9419C12.1206 30.7918 12.1459 30.6164 12.1705 30.467C10.8983 31.1412 10 32.4157 10 33.9155Z" fill="white"/>
</g>
<mask id="mask2_205_4418" style="mask-type:luminance" maskUnits="userSpaceOnUse" x="22" y="30" width="3" height="12">
<path d="M22.7441 30.4011H24.9659V42.0001H22.7441V30.4011Z" fill="white"/>
</mask>
<g mask="url(#mask2_205_4418)">
<path d="M22.7744 30.467C22.8243 30.6164 22.8496 30.7664 22.8496 30.9165L22.9241 31.7661C23.5483 32.291 23.9475 33.0659 23.9475 33.8902V41.4875C23.9475 41.7622 24.1717 41.987 24.4466 41.987C24.7207 41.987 24.9449 41.7622 24.9449 41.4875V33.9155C24.9702 32.4157 24.0972 31.1412 22.7744 30.467Z" fill="white"/>
</g>
<path d="M21.8764 31.0412C21.752 29.8922 20.7785 28.9926 19.6307 28.9926H15.339C14.1666 28.9926 13.2184 29.8668 13.094 31.0412L12.2457 39.2881C12.1958 39.8383 12.3701 40.4132 12.7447 40.838C13.1186 41.2628 13.6423 41.4875 14.2165 41.4875H20.7286C21.2776 41.4875 21.8265 41.2374 22.2011 40.838C22.5751 40.4132 22.7501 39.8629 22.7002 39.2881L21.8764 31.0412ZM13.3681 38.2391L14.0914 31.1413C14.1666 30.4917 14.6902 29.9922 15.339 29.9922H15.9877V30.7418C15.9877 31.4414 16.5367 31.9909 17.2353 31.9909H17.7344C18.433 31.9909 18.982 31.4414 18.982 30.7418V29.9922H19.6307C20.2795 29.9922 20.8284 30.4917 20.8783 31.1413L21.6023 38.2391H13.3681Z" fill="white"/>
<path d="M20.2047 34.1903C20.1793 33.6654 19.7056 33.2406 19.1567 33.2406H15.8131C15.2389 33.2406 14.7897 33.6654 14.7651 34.1903L14.4903 35.6648C14.4657 35.8148 14.4903 35.9649 14.5901 36.0642C14.6899 36.1896 14.815 36.2396 14.9647 36.2396H19.9551C20.1048 36.2396 20.2546 36.1643 20.3291 36.0642C20.4289 35.9395 20.4542 35.7895 20.4289 35.6648L20.2047 34.1903Z" fill="white"/>
<path d="M36.5722 19.0711C36.7219 19.3458 36.9961 19.4959 37.3208 19.4959C37.6202 19.4959 37.8943 19.3458 38.044 19.0711L40.4647 15.2478C40.7888 14.6976 40.9385 14.1234 40.9385 13.5485C40.9385 11.5992 39.317 10 37.3208 10C35.3246 10 33.7031 11.5992 33.7031 13.5485C33.7031 14.1234 33.8774 14.6976 34.2022 15.2724L36.5722 19.0711ZM37.3208 12.4988C37.8697 12.4988 38.3189 12.9483 38.3189 13.4985C38.3189 14.048 37.8697 14.4982 37.3208 14.4982C36.7719 14.4982 36.3227 14.048 36.3227 13.4985C36.3227 12.9483 36.7719 12.4988 37.3208 12.4988Z" fill="white"/>
<defs>
<linearGradient id="paint0_linear_205_4418" x1="-4.875" y1="-12.4583" x2="52" y2="62.8333" gradientUnits="userSpaceOnUse">
<stop offset="0.0550171" stop-color="#151768"/>
<stop offset="1" stop-color="#BAEE30"/>
</linearGradient>
</defs>
</svg>
