<svg width="52" height="52" viewBox="0 0 52 52" fill="none" xmlns="http://www.w3.org/2000/svg">
<rect width="52" height="52" rx="13" fill="url(#paint0_linear_205_4420)"/>
<path d="M18.0003 22.4801C18.0003 22.5637 17.9961 22.6473 17.9876 22.731C17.9791 22.8142 17.966 22.8971 17.949 22.9793C17.932 23.0615 17.9108 23.1429 17.8854 23.2232C17.8603 23.3035 17.8306 23.3823 17.7974 23.4596C17.7638 23.537 17.7268 23.6129 17.6855 23.6869C17.6442 23.7605 17.5995 23.8323 17.5509 23.9023C17.5023 23.9718 17.4506 24.0392 17.395 24.1039C17.3394 24.1687 17.2812 24.2309 17.2195 24.2901C17.1573 24.3493 17.0929 24.4055 17.0254 24.4588C16.9579 24.5121 16.8877 24.5621 16.8151 24.6083C16.7426 24.655 16.6678 24.6983 16.5906 24.7375C16.5138 24.7771 16.4347 24.813 16.3541 24.8452C16.2735 24.877 16.1913 24.9055 16.1076 24.9296C16.0242 24.954 15.9394 24.9743 15.8537 24.9906C15.7681 25.0069 15.682 25.0195 15.5948 25.0276C15.508 25.0358 15.4209 25.0398 15.3337 25.0398C15.2465 25.0398 15.1593 25.0358 15.0725 25.0276C14.9853 25.0195 14.8992 25.0069 14.8136 24.9906C14.7279 24.9743 14.6431 24.954 14.5597 24.9296C14.476 24.9055 14.3938 24.877 14.3132 24.8452C14.2326 24.813 14.1535 24.7771 14.0767 24.7375C13.9996 24.6983 13.9247 24.655 13.8522 24.6083C13.7796 24.5621 13.7094 24.5121 13.6419 24.4588C13.5744 24.4055 13.51 24.3493 13.4479 24.2901C13.3861 24.2309 13.3279 24.1687 13.2723 24.1039C13.2168 24.0392 13.1651 23.9718 13.1165 23.9023C13.0678 23.8323 13.0231 23.7605 12.9818 23.6869C12.9405 23.6129 12.9035 23.537 12.8699 23.4596C12.8367 23.3823 12.807 23.3035 12.782 23.2232C12.7565 23.1429 12.7353 23.0615 12.7183 22.9793C12.7013 22.8971 12.6882 22.8142 12.6797 22.731C12.6712 22.6473 12.667 22.5637 12.667 22.4801C12.667 22.3961 12.6712 22.3124 12.6797 22.2292C12.6882 22.1455 12.7013 22.0626 12.7183 21.9805C12.7353 21.8983 12.7565 21.8169 12.782 21.737C12.807 21.6567 12.8367 21.5778 12.8699 21.5001C12.9035 21.4228 12.9405 21.3473 12.9818 21.2733C13.0231 21.1993 13.0678 21.1275 13.1165 21.0575C13.1651 20.9879 13.2168 20.9206 13.2723 20.8558C13.3279 20.7911 13.3861 20.7289 13.4479 20.6697C13.51 20.6105 13.5744 20.5542 13.6419 20.5009C13.7094 20.448 13.7796 20.3981 13.8522 20.3514C13.9247 20.3048 13.9996 20.2619 14.0767 20.2223C14.1535 20.1827 14.2326 20.1468 14.3132 20.1149C14.3938 20.0828 14.476 20.0546 14.5597 20.0302C14.6431 20.0058 14.7279 19.9854 14.8136 19.9691C14.8992 19.9529 14.9853 19.9406 15.0725 19.9321C15.1593 19.924 15.2465 19.9199 15.3337 19.9199C15.4209 19.9199 15.508 19.924 15.5948 19.9321C15.682 19.9406 15.7681 19.9529 15.8537 19.9691C15.9394 19.9854 16.0242 20.0058 16.1076 20.0302C16.1913 20.0546 16.2735 20.0828 16.3541 20.1149C16.4347 20.1468 16.5138 20.1827 16.5906 20.2223C16.6678 20.2619 16.7426 20.3048 16.8151 20.3514C16.8877 20.3981 16.9579 20.448 17.0254 20.5009C17.0929 20.5542 17.1573 20.6105 17.2195 20.6697C17.2812 20.7289 17.3394 20.7911 17.395 20.8558C17.4506 20.9206 17.5023 20.9879 17.5509 21.0575C17.5995 21.1275 17.6442 21.1993 17.6855 21.2733C17.7268 21.3473 17.7638 21.4228 17.7974 21.5001C17.8306 21.5778 17.8603 21.6567 17.8854 21.737C17.9108 21.8169 17.932 21.8983 17.949 21.9805C17.966 22.0626 17.9791 22.1455 17.9876 22.2292C17.9961 22.3124 18.0003 22.3961 18.0003 22.4801Z" fill="white"/>
<path d="M18.8935 26.8318C17.5467 27.8047 16.6667 29.3664 16.6667 31.1198V31.4399H11C10.4533 31.4399 10 31.0047 10 30.4799V29.8401C10 27.8942 11.64 26.3199 13.6667 26.3199H17C17.6933 26.3199 18.3468 26.512 18.8935 26.8318Z" fill="white"/>
<path d="M39.3333 22.4801C39.3333 22.5637 39.3291 22.6473 39.3206 22.731C39.3121 22.8142 39.299 22.8971 39.282 22.9793C39.265 23.0615 39.2438 23.1429 39.2184 23.2232C39.1933 23.3035 39.1636 23.3823 39.1304 23.4596C39.0968 23.537 39.0598 23.6129 39.0185 23.6869C38.9772 23.7605 38.9325 23.8323 38.8839 23.9023C38.8353 23.9718 38.7836 24.0392 38.728 24.1039C38.6725 24.1687 38.6142 24.2309 38.5525 24.2901C38.4904 24.3493 38.4259 24.4055 38.3584 24.4588C38.2909 24.5121 38.2207 24.5621 38.1481 24.6083C38.0756 24.655 38.0008 24.6983 37.9236 24.7375C37.8468 24.7771 37.7677 24.813 37.6871 24.8452C37.6065 24.877 37.5243 24.9055 37.4406 24.9296C37.3573 24.954 37.2724 24.9743 37.1867 24.9906C37.1011 25.0069 37.015 25.0195 36.9279 25.0276C36.841 25.0358 36.7539 25.0398 36.6667 25.0398C36.5795 25.0398 36.4923 25.0358 36.4051 25.0276C36.3183 25.0195 36.2323 25.0069 36.1466 24.9906C36.0606 24.9743 35.9761 24.954 35.8927 24.9296C35.809 24.9055 35.7269 24.877 35.6462 24.8452C35.5656 24.813 35.4865 24.7771 35.4097 24.7375C35.3326 24.6983 35.2577 24.655 35.1852 24.6083C35.1127 24.5621 35.0424 24.5121 34.9749 24.4588C34.9074 24.4055 34.843 24.3493 34.7809 24.2901C34.7191 24.2309 34.6609 24.1687 34.6053 24.1039C34.5498 24.0392 34.4981 23.9718 34.4495 23.9023C34.4008 23.8323 34.3561 23.7605 34.3148 23.6869C34.2735 23.6129 34.2365 23.537 34.2029 23.4596C34.1694 23.3823 34.14 23.3035 34.115 23.2232C34.0895 23.1429 34.0683 23.0615 34.0513 22.9793C34.0343 22.8971 34.0212 22.8142 34.0127 22.731C34.0042 22.6473 34 22.5637 34 22.4801C34 22.3961 34.0042 22.3124 34.0127 22.2292C34.0212 22.1455 34.0343 22.0626 34.0513 21.9805C34.0683 21.8983 34.0895 21.8169 34.115 21.737C34.14 21.6567 34.1694 21.5778 34.2029 21.5001C34.2365 21.4228 34.2735 21.3473 34.3148 21.2733C34.3561 21.1993 34.4008 21.1275 34.4495 21.0575C34.4981 20.9879 34.5498 20.9206 34.6053 20.8558C34.6609 20.7911 34.7191 20.7289 34.7809 20.6697C34.843 20.6105 34.9074 20.5542 34.9749 20.5009C35.0424 20.448 35.1127 20.3981 35.1852 20.3514C35.2577 20.3048 35.3326 20.2619 35.4097 20.2223C35.4865 20.1827 35.5656 20.1468 35.6462 20.1149C35.7269 20.0828 35.809 20.0546 35.8927 20.0302C35.9761 20.0058 36.0606 19.9854 36.1466 19.9691C36.2323 19.9529 36.3183 19.9406 36.4051 19.9321C36.4923 19.924 36.5795 19.9199 36.6667 19.9199C36.7539 19.9199 36.841 19.924 36.9279 19.9321C37.015 19.9406 37.1011 19.9529 37.1867 19.9691C37.2724 19.9854 37.3573 20.0058 37.4406 20.0302C37.5243 20.0546 37.6065 20.0828 37.6871 20.1149C37.7677 20.1468 37.8468 20.1827 37.9236 20.2223C38.0008 20.2619 38.0756 20.3048 38.1481 20.3514C38.2207 20.3981 38.2909 20.448 38.3584 20.5009C38.4259 20.5542 38.4904 20.6105 38.5525 20.6697C38.6142 20.7289 38.6725 20.7911 38.728 20.8558C38.7836 20.9206 38.8353 20.9879 38.8839 21.0575C38.9325 21.1275 38.9772 21.1993 39.0185 21.2733C39.0598 21.3473 39.0968 21.4228 39.1304 21.5001C39.1636 21.5778 39.1933 21.6567 39.2184 21.737C39.2438 21.8169 39.265 21.8983 39.282 21.9805C39.299 22.0626 39.3121 22.1455 39.3206 22.2292C39.3291 22.3124 39.3333 22.3961 39.3333 22.4801Z" fill="white"/>
<path d="M42 29.8399V30.4798C42 31.0045 41.5466 31.4398 41 31.4398H35.3333V31.1196C35.3333 29.3662 34.4533 27.8045 33.1064 26.8316C33.6531 26.5119 34.3067 26.3198 35 26.3198H38.3333C40.3599 26.3198 42 27.8941 42 29.8399Z" fill="white"/>
<path d="M30 21.8399C30 21.9657 29.9934 22.0911 29.9807 22.2162C29.968 22.3417 29.9487 22.4656 29.9232 22.5892C29.8978 22.7125 29.8657 22.8342 29.8279 22.9545C29.7897 23.0751 29.7458 23.1932 29.6956 23.3094C29.6454 23.4256 29.5895 23.5392 29.5278 23.6502C29.466 23.7609 29.3985 23.8686 29.326 23.9733C29.2531 24.078 29.1752 24.1787 29.0922 24.276C29.0089 24.3734 28.9209 24.4662 28.8283 24.5551C28.7357 24.6442 28.6389 24.7286 28.5374 24.8082C28.4363 24.8881 28.331 24.9629 28.2222 25.0328C28.1134 25.1028 28.0012 25.1672 27.8854 25.2264C27.7701 25.2859 27.6516 25.3396 27.5309 25.3877C27.4097 25.4358 27.2867 25.478 27.1613 25.5147C27.0359 25.5509 26.909 25.5816 26.7805 25.6061C26.652 25.6309 26.5224 25.649 26.392 25.6616C26.2616 25.6738 26.1312 25.6801 26 25.6801C25.8688 25.6801 25.7384 25.6738 25.608 25.6616C25.4776 25.649 25.348 25.6309 25.2195 25.6061C25.091 25.5816 24.9641 25.5509 24.8387 25.5147C24.7133 25.478 24.5903 25.4358 24.4691 25.3877C24.3484 25.3396 24.2299 25.2859 24.1146 25.2264C23.9988 25.1672 23.8866 25.1028 23.7778 25.0328C23.669 24.9629 23.5637 24.8881 23.4626 24.8082C23.3611 24.7286 23.2643 24.6442 23.1717 24.5551C23.0791 24.4662 22.9911 24.3734 22.9078 24.276C22.8248 24.1787 22.7469 24.078 22.674 23.9733C22.6015 23.8686 22.534 23.7609 22.4722 23.6502C22.4105 23.5392 22.3546 23.4256 22.3044 23.3094C22.2542 23.1932 22.2103 23.0751 22.1721 22.9545C22.1343 22.8342 22.1022 22.7125 22.0768 22.5892C22.0513 22.4656 22.032 22.3417 22.0193 22.2162C22.0066 22.0911 22 21.9657 22 21.8399C22 21.714 22.0066 21.5886 22.0193 21.4635C22.032 21.3384 22.0513 21.2141 22.0768 21.0908C22.1022 20.9676 22.1343 20.8455 22.1721 20.7252C22.2103 20.6049 22.2542 20.4865 22.3044 20.3703C22.3546 20.2541 22.4105 20.1409 22.4722 20.0298C22.534 19.9188 22.6015 19.8111 22.674 19.7068C22.7469 19.602 22.8248 19.501 22.9078 19.404C22.9911 19.3067 23.0791 19.2135 23.1717 19.1246C23.2643 19.0358 23.3611 18.9515 23.4626 18.8715C23.5637 18.792 23.669 18.7168 23.7778 18.6473C23.8866 18.5773 23.9988 18.5125 24.1146 18.4533C24.2299 18.3941 24.3484 18.3405 24.4691 18.2924C24.5903 18.2442 24.7133 18.2017 24.8387 18.1654C24.9641 18.1288 25.091 18.0984 25.2195 18.0736C25.348 18.0492 25.4776 18.0307 25.608 18.0185C25.7384 18.0063 25.8688 18 26 18C26.1312 18 26.2616 18.0063 26.392 18.0185C26.5224 18.0307 26.652 18.0492 26.7805 18.0736C26.909 18.0984 27.0359 18.1288 27.1613 18.1654C27.2867 18.2017 27.4097 18.2442 27.5309 18.2924C27.6516 18.3405 27.7701 18.3941 27.8854 18.4533C28.0012 18.5125 28.1134 18.5773 28.2222 18.6473C28.331 18.7168 28.4363 18.792 28.5374 18.8715C28.6389 18.9515 28.7357 19.0358 28.8283 19.1246C28.9209 19.2135 29.0089 19.3067 29.0922 19.404C29.1752 19.501 29.2531 19.602 29.326 19.7064C29.3985 19.8111 29.466 19.9188 29.5278 20.0298C29.5895 20.1409 29.6454 20.2541 29.6956 20.3703C29.7458 20.4865 29.7897 20.6049 29.8279 20.7252C29.8657 20.8455 29.8978 20.9676 29.9232 21.0908C29.9487 21.2141 29.968 21.3384 29.9807 21.4635C29.9934 21.5886 30 21.714 30 21.8399Z" fill="white"/>
<path d="M29.667 27.6H22.3337C20.3109 27.6 18.667 29.178 18.667 31.1197V33.04C18.667 33.5696 19.1149 34 19.667 34H32.3337C32.8857 34 33.3337 33.5696 33.3337 33.04V31.1197C33.3337 29.178 31.6898 27.6 29.667 27.6Z" fill="white"/>
<defs>
<linearGradient id="paint0_linear_205_4420" x1="-4.875" y1="-12.4583" x2="52" y2="62.8333" gradientUnits="userSpaceOnUse">
<stop offset="0.0550171" stop-color="#151768"/>
<stop offset="1" stop-color="#BAEE30"/>
</linearGradient>
</defs>
</svg>
