<svg width="196" height="38" viewBox="0 0 196 38" fill="none" xmlns="http://www.w3.org/2000/svg">
<path d="M33.2902 38H30.2979V15.2745C30.2979 8.4941 25.5849 7.07842 21.6948 7.07842H5.23682V4.09802H21.6948C28.9513 4.09802 33.2902 8.27057 33.2902 15.2745V38Z" fill="white"/>
<path d="M28.0534 38H11.2214C7.3313 38 0 36.1373 0 29.0588V0H2.99237V29.0588C2.99237 34.9451 11.1466 35.0196 11.2214 35.0196H25.0611V16.0196C25.0611 14.7529 24.7618 13.8588 24.1634 13.3373C23.5649 12.8157 22.742 12.6667 22.2183 12.6667H22.0687H7.85496V24.9608C7.85496 26.3765 8.22901 27.4941 9.05191 28.2392C10.0992 29.2078 11.5954 29.5059 12.6427 29.4314H12.7176H22.8168V32.4118H12.7924C11.1466 32.4863 8.75266 32.0392 7.03205 30.4C5.61068 29.0588 4.86259 27.1961 4.86259 24.9608V9.68627H21.9939C22.6672 9.61176 24.5374 9.68627 26.1084 11.102C27.0061 11.9216 27.9786 13.4118 27.9786 16.0196V38H28.0534Z" fill="white"/>
<path d="M47.8781 0H45.6338V38H47.8781V0Z" fill="white"/>
<path d="M71.7419 31.4432V35.6902C71.5923 35.9137 71.3679 36.1373 71.0687 36.4353C70.7694 36.7333 70.3206 36.9569 69.7221 37.1059C69.1984 37.3294 68.4504 37.4039 67.5526 37.4039C66.8046 37.4039 66.2061 37.2549 65.6076 37.0314C65.0091 36.8079 64.4855 36.4353 64.0366 35.9137C63.5878 35.4667 63.2885 34.8706 62.9893 34.2C62.7649 33.5294 62.6152 32.7098 62.6152 31.8902V30.9961C62.6152 30.102 62.6901 29.3569 62.9145 28.6863C63.1389 28.0157 63.4381 27.4196 63.8122 26.9726C64.1862 26.5255 64.7099 26.153 65.3084 25.8549C65.9068 25.6314 66.5801 25.4824 67.3282 25.4824C68.2259 25.4824 68.974 25.6314 69.5725 25.9294C70.171 26.2275 70.6198 26.6745 70.9939 27.1961C71.3679 27.7177 71.5923 28.3137 71.6671 29.0588H70.0961C70.0213 28.6118 69.8717 28.2392 69.6473 27.9412C69.4229 27.5686 69.1236 27.3451 68.7496 27.1216C68.3755 26.898 67.8519 26.8235 67.2534 26.8235C66.7297 26.8235 66.2809 26.898 65.832 27.1216C65.458 27.3451 65.0839 27.5686 64.8595 27.9412C64.6351 28.3137 64.4107 28.7608 64.261 29.2824C64.1114 29.8039 64.1114 30.4 64.1114 31.0706V31.9647C64.1114 32.6353 64.1862 33.2314 64.3358 33.7529C64.4855 34.2745 64.7099 34.7216 65.0091 35.0941C65.3084 35.4667 65.6824 35.7647 66.0565 35.9137C66.5053 36.1373 66.9542 36.2118 67.403 36.2118C67.9267 36.2118 68.3755 36.1373 68.7496 36.0628C69.1236 35.9882 69.3481 35.8392 69.5725 35.6902C69.7969 35.5412 69.9465 35.4667 70.0213 35.3177V32.7098H67.3282V31.4432H71.7419ZM82.6641 25.6314H84.2351V33.5294C84.2351 34.4235 84.0107 35.1686 83.6366 35.6902C83.2626 36.2863 82.7389 36.7334 82.0656 37.0314C81.3923 37.3294 80.719 37.4784 79.971 37.4784C79.1481 37.4784 78.4748 37.3294 77.8015 37.0314C77.1282 36.7334 76.6794 36.2863 76.3053 35.6902C75.9313 35.0941 75.7816 34.349 75.7816 33.5294V25.6314H77.3526V33.5294C77.3526 34.1255 77.4274 34.6471 77.7267 35.0196C77.9511 35.3922 78.2503 35.6902 78.6992 35.9137C79.0732 36.1373 79.5969 36.2118 80.1206 36.2118C80.6442 36.2118 81.1679 36.1373 81.5419 35.9137C81.916 35.6902 82.29 35.3922 82.5145 35.0196C82.7389 34.6471 82.8885 34.1255 82.8885 33.5294V25.6314H82.6641ZM92.3893 26.6L88.4992 37.2549H86.9282L91.4168 25.6314H92.4641L92.3893 26.6ZM95.6809 37.2549L91.7908 26.6V25.5569H92.8381L97.3267 37.1804H95.6809V37.2549ZM95.4565 32.9334V34.2H88.8732V32.9334H95.4565ZM100.469 25.6314H104.359C105.256 25.6314 106.005 25.7804 106.603 26.0039C107.201 26.302 107.65 26.6745 108.024 27.1961C108.324 27.7177 108.473 28.3883 108.473 29.1334C108.473 29.6549 108.398 30.1765 108.174 30.6235C107.95 31.0706 107.65 31.4432 107.276 31.7412C106.902 32.0392 106.379 32.2628 105.855 32.4118L105.406 32.5608H101.74V31.2941H104.508C105.032 31.2941 105.556 31.2196 105.93 30.9961C106.304 30.7726 106.603 30.549 106.753 30.1765C106.977 29.8784 107.052 29.5059 107.052 29.0588C107.052 28.6118 106.977 28.2392 106.753 27.8667C106.603 27.4941 106.304 27.2706 105.93 27.1216C105.556 26.898 105.107 26.8235 104.508 26.8235H102.189V37.2549H100.618V25.6314H100.469ZM107.276 37.2549L104.434 31.9647H106.079L108.997 37.1804V37.2549H107.276ZM115.43 37.2549H112.962V35.9882H115.356C116.179 35.9882 116.852 35.8392 117.45 35.4667C117.974 35.0941 118.423 34.6471 118.722 33.9765C119.021 33.3059 119.171 32.6353 119.171 31.7412V30.9961C119.171 30.3255 119.096 29.7294 118.947 29.2079C118.797 28.6863 118.572 28.2392 118.273 27.8667C117.974 27.4941 117.6 27.1961 117.151 27.0471C116.702 26.8235 116.179 26.749 115.58 26.749H112.962V25.4824H115.58C116.328 25.4824 117.076 25.6314 117.675 25.8549C118.273 26.0785 118.872 26.451 119.321 26.9726C119.769 27.4196 120.143 28.0157 120.368 28.6863C120.592 29.3569 120.742 30.102 120.742 30.9961V31.6667C120.742 32.4863 120.592 33.3059 120.368 33.9765C120.143 34.6471 119.769 35.2431 119.321 35.6902C118.872 36.1373 118.273 36.5098 117.675 36.8079C116.927 37.1059 116.253 37.2549 115.43 37.2549ZM113.785 25.6314V37.2549H112.214V25.6314H113.785ZM134.731 26.6L130.916 37.2549H129.345L133.834 25.6314H134.881L134.731 26.6ZM138.023 37.2549L134.133 26.6V25.5569H135.18L139.669 37.1804H138.023V37.2549ZM137.798 32.9334V34.2H131.215V32.9334H137.798ZM149.02 34.2745C149.02 33.9765 148.945 33.753 148.87 33.5294C148.795 33.3059 148.646 33.1569 148.421 32.9334C148.197 32.7843 147.898 32.6353 147.598 32.4118C147.224 32.2628 146.776 32.1137 146.252 31.9647C145.653 31.8157 145.13 31.5922 144.681 31.3686C144.232 31.1451 143.783 30.9216 143.484 30.6235C143.185 30.3255 142.885 30.0275 142.736 29.6549C142.586 29.2824 142.437 28.9098 142.437 28.4628C142.437 28.0157 142.511 27.5686 142.736 27.1961C142.96 26.8235 143.185 26.451 143.559 26.2275C143.933 25.9294 144.307 25.7059 144.83 25.5569C145.354 25.4078 145.878 25.3333 146.476 25.3333C147.374 25.3333 148.122 25.4824 148.721 25.8549C149.319 26.153 149.843 26.6 150.142 27.1961C150.441 27.7177 150.591 28.3137 150.591 28.9098H149.02C149.02 28.4627 148.945 28.0902 148.721 27.7177C148.496 27.3451 148.272 27.1216 147.898 26.8981C147.524 26.6745 147 26.6 146.476 26.6C145.953 26.6 145.504 26.6745 145.13 26.8235C144.756 26.9726 144.531 27.1961 144.307 27.4941C144.157 27.7922 144.082 28.0902 144.082 28.4628C144.082 28.6863 144.157 28.9098 144.232 29.1334C144.307 29.3569 144.531 29.5059 144.756 29.6549C144.98 29.8039 145.279 29.953 145.579 30.102C145.953 30.251 146.327 30.4 146.85 30.549C147.524 30.7726 148.122 30.9216 148.571 31.1451C149.02 31.3686 149.469 31.6667 149.768 31.8902C150.067 32.1882 150.292 32.4863 150.441 32.8588C150.591 33.2314 150.666 33.6039 150.666 34.051C150.666 34.4981 150.591 34.9451 150.366 35.3177C150.142 35.6902 149.917 36.0628 149.543 36.2863C149.169 36.5843 148.721 36.7333 148.272 36.8824C147.748 37.0314 147.224 37.1059 146.626 37.1059C146.102 37.1059 145.579 37.0314 145.055 36.8824C144.531 36.7333 144.082 36.5098 143.634 36.2118C143.185 35.9137 142.885 35.5412 142.586 35.0941C142.362 34.6471 142.212 34.1255 142.212 33.5294H143.783C143.783 33.902 143.858 34.2745 144.008 34.5726C144.157 34.8706 144.382 35.0941 144.606 35.2431C144.905 35.4667 145.205 35.5412 145.504 35.6902C145.878 35.7647 146.177 35.8392 146.626 35.8392C147.15 35.8392 147.598 35.7647 147.972 35.6157C148.346 35.4667 148.646 35.2431 148.795 34.9451C148.945 35.0196 149.02 34.7216 149.02 34.2745ZM160.466 34.2745C160.466 33.9765 160.391 33.753 160.316 33.5294C160.241 33.3059 160.092 33.1569 159.867 32.9334C159.643 32.7843 159.343 32.6353 159.044 32.4118C158.67 32.2628 158.221 32.1137 157.698 31.9647C157.099 31.8157 156.576 31.5922 156.127 31.3686C155.678 31.1451 155.229 30.9216 154.93 30.6235C154.63 30.3255 154.331 30.0275 154.182 29.6549C154.032 29.2824 153.882 28.9098 153.882 28.4628C153.882 28.0157 153.957 27.5686 154.182 27.1961C154.406 26.8235 154.63 26.451 155.005 26.2275C155.379 25.9294 155.753 25.7059 156.276 25.5569C156.8 25.4078 157.324 25.3333 157.922 25.3333C158.82 25.3333 159.568 25.4824 160.166 25.8549C160.765 26.153 161.214 26.6 161.588 27.1961C161.887 27.7177 162.037 28.3137 162.037 28.9098H160.466C160.466 28.4627 160.391 28.0902 160.166 27.7177C159.942 27.3451 159.717 27.1216 159.343 26.8981C158.969 26.6745 158.446 26.6 157.922 26.6C157.398 26.6 156.95 26.6745 156.576 26.8235C156.201 26.9726 155.977 27.1961 155.753 27.4941C155.603 27.7922 155.528 28.0902 155.528 28.4628C155.528 28.6863 155.603 28.9098 155.678 29.1334C155.753 29.3569 155.977 29.5059 156.201 29.6549C156.426 29.8039 156.725 29.953 157.024 30.102C157.398 30.251 157.772 30.4 158.296 30.549C158.969 30.7726 159.568 30.9216 160.017 31.1451C160.466 31.3686 160.914 31.6667 161.214 31.8902C161.513 32.1882 161.737 32.4863 161.887 32.8588C162.037 33.2314 162.111 33.6039 162.111 34.051C162.111 34.4981 162.037 34.9451 161.812 35.3177C161.588 35.6902 161.363 36.0628 160.989 36.2863C160.615 36.5843 160.166 36.7333 159.717 36.8824C159.194 37.0314 158.67 37.1059 158.072 37.1059C157.548 37.1059 157.024 37.0314 156.501 36.8824C155.977 36.7333 155.528 36.5098 155.079 36.2118C154.63 35.9137 154.331 35.5412 154.032 35.0941C153.808 34.6471 153.658 34.1255 153.658 33.5294H155.229C155.229 33.902 155.304 34.2745 155.453 34.5726C155.603 34.8706 155.827 35.0941 156.052 35.2431C156.351 35.4667 156.65 35.5412 156.95 35.6902C157.324 35.7647 157.623 35.8392 158.072 35.8392C158.595 35.8392 159.044 35.7647 159.418 35.6157C159.792 35.4667 160.092 35.2431 160.241 34.9451C160.391 35.0196 160.466 34.7216 160.466 34.2745ZM173.108 35.9882V37.2549H166.899V35.9882H173.108ZM167.198 25.6314V37.2549H165.627V25.6314H167.198ZM172.285 30.6235V31.8902H166.899V30.6235H172.285ZM172.959 25.6314V26.8981H166.824V25.6314H172.959ZM181.113 25.6314V37.2549H179.617V25.6314H181.113ZM184.853 25.6314V26.8981H175.801V25.6314H184.853ZM194.354 34.2745C194.354 33.9765 194.279 33.753 194.205 33.5294C194.13 33.3059 193.98 33.1569 193.756 32.9334C193.531 32.7843 193.232 32.6353 192.933 32.4118C192.559 32.2628 192.11 32.1137 191.586 31.9647C190.988 31.8157 190.464 31.5922 190.015 31.3686C189.566 31.1451 189.117 30.9216 188.818 30.6235C188.519 30.3255 188.22 30.0275 188.07 29.6549C187.921 29.2824 187.771 28.9098 187.771 28.4628C187.771 28.0157 187.846 27.5686 188.07 27.1961C188.22 26.8235 188.519 26.451 188.893 26.2275C189.267 25.9294 189.641 25.7059 190.165 25.5569C190.688 25.4078 191.212 25.3333 191.811 25.3333C192.708 25.3333 193.456 25.4824 194.055 25.8549C194.653 26.153 195.177 26.6 195.476 27.1961C195.775 27.7177 195.925 28.3137 195.925 28.9098H194.354C194.354 28.4627 194.279 28.0902 194.055 27.7177C193.905 27.3451 193.606 27.1216 193.232 26.8981C192.858 26.6745 192.334 26.6 191.811 26.6C191.287 26.6 190.838 26.6745 190.464 26.8235C190.09 26.9726 189.866 27.1961 189.641 27.4941C189.492 27.7922 189.417 28.0902 189.417 28.4628C189.417 28.6863 189.492 28.9098 189.566 29.1334C189.641 29.3569 189.866 29.5059 190.09 29.6549C190.314 29.8039 190.614 29.953 190.913 30.102C191.287 30.251 191.661 30.4 192.185 30.549C192.858 30.7726 193.456 30.9216 193.905 31.1451C194.354 31.3686 194.803 31.6667 195.102 31.8902C195.401 32.1882 195.626 32.4863 195.775 32.8588C195.925 33.2314 196 33.6039 196 34.051C196 34.4981 195.925 34.9451 195.701 35.3177C195.476 35.6902 195.252 36.0628 194.878 36.2863C194.504 36.5843 194.055 36.7333 193.606 36.8824C193.082 37.0314 192.559 37.1059 191.96 37.1059C191.437 37.1059 190.913 37.0314 190.389 36.8824C189.866 36.7333 189.417 36.5098 188.968 36.2118C188.519 35.9137 188.22 35.5412 187.921 35.0941C187.696 34.6471 187.547 34.1255 187.547 33.5294H189.117C189.117 33.902 189.192 34.2745 189.342 34.5726C189.492 34.8706 189.716 35.0941 189.94 35.2431C190.24 35.4667 190.539 35.5412 190.838 35.6902C191.212 35.7647 191.511 35.8392 191.96 35.8392C192.484 35.8392 192.933 35.7647 193.307 35.6157C193.681 35.4667 193.98 35.2431 194.13 34.9451C194.279 35.0196 194.354 34.7216 194.354 34.2745Z" fill="white"/>
<path d="M67.328 13.7098H64.3356V11.8471H67.328C67.7769 11.8471 68.1509 11.7726 68.4501 11.6236C68.7494 11.4745 68.9738 11.251 69.0486 10.953C69.1982 10.6549 69.2731 10.3569 69.2731 10.0589C69.2731 9.6863 69.1982 9.38826 69.0486 9.09022C68.899 8.79218 68.6746 8.56865 68.4501 8.34512C68.1509 8.19611 67.7769 8.04709 67.328 8.04709H65.1586V17.8824H62.7646V6.25885H67.328C68.2257 6.25885 69.0486 6.40788 69.6471 6.78043C70.3204 7.07847 70.844 7.52551 71.1433 8.12159C71.5173 8.71767 71.6669 9.38827 71.6669 10.1334C71.6669 10.8785 71.5173 11.549 71.1433 12.0706C70.7692 12.5922 70.3204 13.0392 69.6471 13.3373C69.0486 13.5608 68.2257 13.7098 67.328 13.7098ZM75.0334 6.25885H79.3723C80.27 6.25885 81.0181 6.40787 81.6914 6.6314C82.3646 6.92944 82.8135 7.30199 83.1875 7.82356C83.5616 8.34513 83.7112 9.01572 83.7112 9.76082C83.7112 10.3569 83.6364 10.953 83.412 11.4C83.1875 11.8471 82.8883 12.2196 82.5143 12.5177C82.1402 12.8157 81.6914 13.0392 81.1677 13.1883L80.4196 13.5608H76.6043V11.6981H79.4471C79.8959 11.6981 80.1952 11.6236 80.4944 11.4745C80.7937 11.3255 81.0181 11.102 81.0929 10.8785C81.2425 10.5804 81.3173 10.2824 81.3173 9.98434C81.3173 9.61179 81.2425 9.31376 81.0929 9.01572C80.9433 8.71768 80.7189 8.56866 80.4944 8.41964C80.1952 8.27062 79.8211 8.19611 79.4471 8.19611H77.5021V17.8824H75.1082V6.25885H75.0334ZM81.5417 17.8824L78.8486 12.6667H81.3921L84.0853 17.7334V17.8079H81.5417V17.8824ZM89.7708 6.25885V17.8824H87.3769V6.25885H89.7708ZM94.783 6.25885H96.8028L99.7952 14.8275L102.788 6.25885H104.807L100.618 17.8824H98.9723L94.783 6.25885ZM93.6608 6.25885H95.6807L96.0547 14.604V17.8824H93.6608V6.25885ZM103.91 6.25885H105.93V17.8824H103.536V14.604L103.91 6.25885ZM117.6 16.0196V17.8824H111.391V16.0196H117.6ZM112.139 6.25885V17.8824H109.745V6.25885H112.139ZM116.777 10.953V12.7412H111.391V10.953H116.777ZM117.6 6.25885V8.12159H111.391V6.25885H117.6Z" fill="white"/>
</svg>
